<svg xmlns="http://www.w3.org/2000/svg" viewBox="0 0 18 18"><path d="M.5 15.08a.16.16 0 00.08.14l1.16.65L3.7 17a.17.17 0 00.23-.06l.66-1.12a.16.16 0 00-.06-.21l-2.3-1.3a.17.17 0 01-.08-.14V3.85a.16.16 0 01.08-.14l2.3-1.3a.16.16 0 00.06-.21l-.66-1.12A.17.17 0 003.7 1L1.78 2.11l-1.2.67a.16.16 0 00-.08.14v12.16z" fill="#949494"/><path d="M2.14 3.77l.06-.06 2.3-1.3a.14.14 0 00.06-.21L3.9 1.08A.15.15 0 003.68 1L1.75 2.11l-1.19.67s-.05 0-.06.06l.9.51zM4.5 15.59l-2.3-1.3a.22.22 0 01-.07-.09l-1.62 1h.05l1.15.65 2 1.11a.15.15 0 00.22-.06l.66-1.12a.14.14 0 00-.09-.19z" fill="#a3a3a3"/><path d="M17.5 15.08a.16.16 0 01-.08.14l-1.16.65L14.3 17a.17.17 0 01-.23-.06l-.66-1.12a.16.16 0 01.06-.21l2.3-1.3a.17.17 0 00.08-.14V3.85a.16.16 0 00-.08-.14l-2.3-1.3a.16.16 0 01-.06-.21l.66-1.12A.17.17 0 0114.3 1l1.92 1.09 1.2.67a.16.16 0 01.08.14v12.18z" fill="#949494"/><path d="M15.86 3.77l-.06-.06-2.3-1.3a.14.14 0 01-.06-.21l.66-1.12a.15.15 0 01.22-.08l1.93 1.09 1.19.67.06.06-.9.51zM13.5 15.59l2.3-1.3a.22.22 0 00.07-.09l1.62 1-1.15.65-2 1.11a.15.15 0 01-.22-.06l-.66-1.12a.14.14 0 01.04-.19z" fill="#a3a3a3"/><path fill="#32bedd" d="M14.31 5.93v6.14l-5.32 3.09V9.01l5.32-3.08z"/><path fill="#9cebff" d="M14.31 5.93L9 9.02 3.68 5.93 9 2.84l5.31 3.09z"/><path fill="#50e6ff" d="M8.99 9.02v6.14l-5.31-3.09V5.93l5.31 3.09z"/><path fill="#9cebff" d="M3.68 12.07l5.31-3.06v6.15l-5.31-3.09z"/><path fill="#50e6ff" d="M14.31 12.07L8.99 9.01v6.15l5.32-3.09z"/></svg>